<?xml version="1.0" encoding="utf-8" standalone="no"?>
<svg version="1.1" viewBox="0 0 86 86" xmlns="http://www.w3.org/2000/svg">
  <defs>
    <linearGradient id="gradient" x1="79.23" y1="91.33" x2="6.76" y2="18.85" gradientUnits="userSpaceOnUse">
      <stop offset="0" style="stop-color:#f5d9a8;stop-opacity:1;"/>
      <stop offset="1" style="stop-color:#cc9933;stop-opacity:1;"/>
    </linearGradient>
  </defs>
  <rect style="fill:#ffffff;opacity:0" width="86" height="86"/>
  <path fill="url(#gradient)" d="M 43,0.3 C 19.417,0.3 0.3,19.418 0.3,43 v 41.277 c 0,0.786 0.637,1.423 1.423,1.423 h 82.554 c 0.786,0 1.423,-0.637 1.423,-1.423 V 43 C 85.701,19.418 66.583,0.3 43,0.3 z"/>
  <path style="fill:#cc0000" d="m 65.244,25.145 2.756,0 0,52.855 -39.567,0 C 22.626,78 18,73.965 18,67.961 l 0,-45.768 c 0,-3.248 2.657,-5.906 5.906,-5.906 l 36.614,0 0,45.374 -32.087,0 c -4.035,0 -6.89,2.165 -6.89,6.102 l 0,0.197 c 0,3.937 2.854,6.496 6.89,6.496 l 36.811,0 0,-49.311 z m -4.724,44.193 -31.693,0 c -0.886,0 -1.673,-0.492 -1.673,-1.476 0,-0.787 0.787,-1.28 1.673,-1.28 l 31.693,0 0,2.756 z"/>
 </svg>
