<?xml version="1.0" encoding="utf-8" standalone="no"?>
<svg version="1.1" viewBox="0 0 100 100" xmlns="http://www.w3.org/2000/svg">
  <path style="fill:#ffffff" d="M 50,0 C 22.386,0 0,22.386 0,50 0,77.614 22.386,100 50,100 77.614,100 100,77.614 100,50 100,22.386 77.614,0 50,0 Z M 28.844,23.906 44.688,39.75 c 5.653,5.653 5.652,14.847 0,20.5 L 28.844,76.094 c -1.565,1.257 -3.595,1.303 -4.938,0 -1.367,-1.367 -1.367,-3.571 0,-4.938 L 39.75,55.312 c 2.924,-2.925 2.924,-7.701 0,-10.625 L 23.906,28.844 c -1.367,-1.367 -1.367,-3.571 0,-4.938 1.565,-1.258 3.594,-1.303 4.938,0 z m 47.25,0 c 1.367,1.367 1.367,3.571 0,4.938 L 62.375,42.562 c -4.094,4.094 -4.095,10.779 0,14.875 l 13.719,13.719 c 1.366,1.367 1.367,3.571 0,4.938 -1.566,1.257 -3.593,1.303 -4.938,0 L 57.438,62.375 c -6.822,-6.825 -6.823,-17.927 0,-24.75 L 71.156,23.906 c 1.564,-1.258 3.595,-1.303 4.938,0 z"/>
</svg>
