<?xml version="1.0" encoding="UTF-8" standalone="no"?>
<!-- Generator: Adobe Illustrator 17.0.1, SVG Export Plug-In . SVG Version: 6.00 Build 0)  -->

<svg
   xmlns:dc="http://purl.org/dc/elements/1.1/"
   xmlns:cc="http://creativecommons.org/ns#"
   xmlns:rdf="http://www.w3.org/1999/02/22-rdf-syntax-ns#"
   xmlns:svg="http://www.w3.org/2000/svg"
   xmlns="http://www.w3.org/2000/svg"
   xmlns:sodipodi="http://sodipodi.sourceforge.net/DTD/sodipodi-0.dtd"
   xmlns:inkscape="http://www.inkscape.org/namespaces/inkscape"
   version="1.1"
   id="Layer_1"
   x="0px"
   y="0px"
   width="100"
   height="100"
   viewBox="0 0 100 100"
   xml:space="preserve"
   inkscape:version="0.48.4 r9939"
   sodipodi:docname="close-x.svg"><metadata
     id="metadata3074"><rdf:RDF><cc:Work
         rdf:about=""><dc:format>image/svg+xml</dc:format><dc:type
           rdf:resource="http://purl.org/dc/dcmitype/StillImage" /><dc:title></dc:title></cc:Work></rdf:RDF></metadata><defs
     id="defs3072" /><g
     id="graphic-close-app"
     transform="translate(0,-8)"><path
       style="fill:#ffffff;stroke:none"
       d="M 50,0 C 22.385763,0 0,22.385763 0,50 0,77.614238 22.385763,100 50,100 77.614237,100 100,77.614238 100,50 100,22.385763 77.614237,0 50,0 z M 28.84375,23.90625 44.6875,39.75 c 5.653,5.653 5.652,14.847 0,20.5 L 28.84375,76.09375 c -1.56467,1.257409 -3.594505,1.303267 -4.9375,0 -1.367,-1.367 -1.367,-3.5715 0,-4.9375 L 39.75,55.3125 c 2.924,-2.925 2.924,-7.701 0,-10.625 L 23.90625,28.84375 c -1.367,-1.367 -1.367,-3.5705 0,-4.9375 1.565153,-1.257526 3.594022,-1.302845 4.9375,0 z m 47.25,0 c 1.367,1.367 1.367,3.5705 0,4.9375 L 62.375,42.5625 c -4.094,4.094 -4.095,10.779 0,14.875 l 13.71875,13.71875 c 1.366,1.367 1.367,3.5705 0,4.9375 -1.566108,1.257128 -3.593266,1.302721 -4.9375,0 L 57.4375,62.375 c -6.822,-6.825 -6.823,-17.927 0,-24.75 L 71.15625,23.90625 c 1.564445,-1.258008 3.595058,-1.302741 4.9375,0 z"
       transform="translate(0,8)"
       id="circle3060"
       inkscape:connector-curvature="0"
       sodipodi:nodetypes="ssssscscccccsscccsscccccscc" /></g></svg>
