<?xml version="1.0" encoding="utf-8" standalone="no"?>
<svg version="1.1" viewBox="0 0 86 86" xmlns="http://www.w3.org/2000/svg">
  <defs>
    <linearGradient id="gradient" x1="8" y1="8" x2="94" y2="94" gradientUnits="userSpaceOnUse">
      <stop offset="0" style="stop-color:#cc9933;stop-opacity:1"/>
      <stop offset="1" style="stop-color:#f5d9a8;stop-opacity:1"/>
    </linearGradient>
  </defs>
  <rect style="fill:#ffffff;opacity:0" width="86" height="86"/>
  <circle style="fill:url(#gradient)" cx="43" cy="43" r="43"/>
  <path style="fill:#cc0000" d="m 63.02,23.202 2.48,0 0,47.569 -35.61,0 C 24.663,70.771 20.5,67.139 20.5,61.735 l 0,-41.191 c 0,-2.923 2.392,-5.315 5.315,-5.315 l 32.953,0 0,40.837 -28.878,0 c -3.632,0 -6.201,1.949 -6.201,5.492 l 0,0.177 c 0,3.543 2.569,5.846 6.201,5.846 l 33.13,0 0,-44.38 z m -4.252,39.774 -28.524,0 c -0.797,0 -1.506,-0.443 -1.506,-1.329 0,-0.709 0.709,-1.152 1.506,-1.152 l 28.524,0 0,2.48 z"/>
</svg>
