<?xml version="1.0" encoding="UTF-8" standalone="no"?>
<!-- Generator: Adobe Illustrator 17.0.1, SVG Export Plug-In . SVG Version: 6.00 Build 0)  -->

<svg
   xmlns:dc="http://purl.org/dc/elements/1.1/"
   xmlns:cc="http://creativecommons.org/ns#"
   xmlns:rdf="http://www.w3.org/1999/02/22-rdf-syntax-ns#"
   xmlns:svg="http://www.w3.org/2000/svg"
   xmlns="http://www.w3.org/2000/svg"
   xmlns:xlink="http://www.w3.org/1999/xlink"
   xmlns:sodipodi="http://sodipodi.sourceforge.net/DTD/sodipodi-0.dtd"
   xmlns:inkscape="http://www.inkscape.org/namespaces/inkscape"
   version="1.1"
   x="0px"
   y="0px"
   width="86px"
   height="86px"
   viewBox="0 0 86 86"
   enable-background="new 0 0 86 86"
   xml:space="preserve"
   id="svg2"
   inkscape:version="0.48.4 r9939"
   sodipodi:docname="cover-image.svg"><defs
     id="defs12"><linearGradient
       y2="18.8514"
       x2="6.7619"
       y1="91.3279"
       x1="79.2383"
       gradientUnits="userSpaceOnUse"
       id="linearGradient3843"><stop
         id="stop3845"
         style="stop-color:#f5d9a8;stop-opacity:1;"
         offset="0" /><stop
         id="stop3847"
         style="stop-color:#cc9933;stop-opacity:1;"
         offset="1" /></linearGradient><linearGradient
       inkscape:collect="always"
       xlink:href="#linearGradient3843"
       id="linearGradient3833"
       x1="26.594183"
       y1="24.500792"
       x2="3.6175976"
       y2="4.4139266"
       gradientUnits="userSpaceOnUse" /></defs><metadata
     id="metadata25"><rdf:RDF><cc:Work
         rdf:about=""><dc:format>image/svg+xml</dc:format><dc:type
           rdf:resource="http://purl.org/dc/dcmitype/StillImage" /><dc:title /></cc:Work></rdf:RDF></metadata><path
     sodipodi:type="arc"
     style="fill:url(#linearGradient3833);fill-opacity:1;fill-rule:evenodd;stroke:#ffffff;stroke-width:0;stroke-linecap:butt;stroke-linejoin:miter;stroke-miterlimit:4;stroke-opacity:1;stroke-dasharray:none"
     id="path3825"
     sodipodi:cx="13.5"
     sodipodi:cy="13.1875"
     sodipodi:rx="10.5"
     sodipodi:ry="9.8125"
     d="m 24,13.1875 a 10.5,9.8125 0 1 1 -21,0 10.5,9.8125 0 1 1 21,0 z"
     transform="matrix(4.0952381,0,0,4.3821656,-12.285714,-14.789809)" /><g
     id="Layer_1"></g><path
     inkscape:connector-curvature="0"
     d="m 63.019685,23.201772 2.480315,0 0,47.568897 -35.610236,0 C 24.663386,70.770669 20.5,67.13878 20.5,61.735235 l 0,-41.190944 c 0,-2.923228 2.391733,-5.31496 5.314961,-5.31496 l 32.952755,0 0,40.836614 -28.877952,0 c -3.63189,0 -6.200788,1.948818 -6.200788,5.492126 l 0,0.177164 c 0,3.543308 2.568898,5.846458 6.200788,5.846458 l 33.129921,0 0,-44.379921 z m -4.251969,39.773621 -28.523622,0 c -0.797243,0 -1.505905,-0.442912 -1.505905,-1.328739 0,-0.708662 0.708662,-1.151576 1.505905,-1.151576 l 28.523622,0 0,2.480315 z"
     id="path4"
     style="fill:#cc0000;fill-opacity:1;stroke-width:0;stroke-miterlimit:4;stroke-dasharray:none" /><path
     sodipodi:type="arc"
     style="opacity:0;fill:#000000;fill-opacity:1;stroke:#ffffff;stroke-width:4;stroke-linecap:square;stroke-miterlimit:3;stroke-opacity:1;stroke-dasharray:none"
     id="path2999"
     sodipodi:cx="43"
     sodipodi:cy="44.275425"
     sodipodi:rx="42.088985"
     sodipodi:ry="51.745762"
     d="m 85.088985,44.275425 a 42.088985,51.745762 0 1 1 -84.17797044,0 42.088985,51.745762 0 1 1 84.17797044,0 z" /><path
     sodipodi:type="arc"
     style="opacity:0;fill:none;fill-opacity:1;stroke:#ffffff;stroke-width:4;stroke-linecap:square;stroke-miterlimit:3;stroke-opacity:1;stroke-dasharray:none"
     id="path3769"
     sodipodi:cx="22.684322"
     sodipodi:cy="17.491526"
     sodipodi:rx="12.298729"
     sodipodi:ry="12.207627"
     d="M 34.983051,17.491526 A 12.298729,12.207627 0 1 1 22.792077,5.2843669 L 22.684322,17.491526 z"
     sodipodi:start="0"
     sodipodi:end="4.7211505" /><path
     sodipodi:type="arc"
     style="opacity:0;fill:#000000;fill-opacity:1;stroke:#ffffff;stroke-width:4;stroke-linecap:square;stroke-miterlimit:3;stroke-opacity:1;stroke-dasharray:none"
     id="path3799"
     sodipodi:cx="3"
     sodipodi:cy="5"
     sodipodi:rx="80.07618"
     sodipodi:ry="1.096934"
     d="M 83.07618,5 A 80.07618,1.096934 0 1 1 3.70158,3.9031081 L 3,5 z"
     sodipodi:start="0"
     sodipodi:end="4.7211505" /><path
     sodipodi:type="arc"
     style="opacity:0;fill:#000000;fill-opacity:1;stroke:#ffffff;stroke-width:4;stroke-linecap:square;stroke-miterlimit:3;stroke-opacity:1;stroke-dasharray:none"
     id="path3801"
     sodipodi:cx="84.75"
     sodipodi:cy="18.5"
     sodipodi:rx="18.75"
     sodipodi:ry="18.75"
     d="m 103.5,18.5 a 18.75,18.75 0 1 1 -37.5,0 18.75,18.75 0 1 1 37.5,0 z" /></svg>
