<?xml version="1.0" encoding="UTF-8" standalone="no"?>
<!-- Created with Inkscape (http://www.inkscape.org/) -->

<svg
   xmlns:dc="http://purl.org/dc/elements/1.1/"
   xmlns:cc="http://creativecommons.org/ns#"
   xmlns:rdf="http://www.w3.org/1999/02/22-rdf-syntax-ns#"
   xmlns:svg="http://www.w3.org/2000/svg"
   xmlns="http://www.w3.org/2000/svg"
   xmlns:sodipodi="http://sodipodi.sourceforge.net/DTD/sodipodi-0.dtd"
   xmlns:inkscape="http://www.inkscape.org/namespaces/inkscape"
   width="64"
   height="64"
   id="svg3832"
   version="1.1"
   inkscape:version="0.48.4 r9939"
   sodipodi:docname="day-mode.svg">
  <defs
     id="defs3834" />
  <metadata
     id="metadata3837">
    <rdf:RDF>
      <cc:Work
         rdf:about="">
        <dc:format>image/svg+xml</dc:format>
        <dc:type
           rdf:resource="http://purl.org/dc/dcmitype/StillImage" />
        <dc:title />
      </cc:Work>
    </rdf:RDF>
  </metadata>
  <g
     inkscape:label="Layer 1"
     inkscape:groupmode="layer"
     id="layer1"
     transform="translate(0,-988.36218)">
    <g
       transform="translate(8,996.36218)"
       id="g6">
      <rect
         id="rect3842"
         height="48"
         width="48"
         style="fill:none"
         x="0"
         y="0" />
      <path
         id="path3844"
         d="m 24,13.5 c -5.797,0 -10.5,4.682 -10.5,10.5 0,5.816 4.703,10.5 10.5,10.5 5.796,0 10.5,-4.684 10.5,-10.5 0,-5.818 -4.704,-10.5 -10.5,-10.5 z"
         style="fill:#ffffff;fill-opacity:1"
         inkscape:connector-curvature="0"
         sodipodi:nodetypes="cssscc" />
      <path
         id="path3846"
         d="m 24,0.75 c -1.5,0 -2.25,0.75 -2.25,1.5 V 9 c 0,0.75 0.75,1.5 2.25,1.5 1.5,0 2.25,-0.75 2.25,-1.5 V 2.25 C 26.25,1.5 25.5,0.75 24,0.75 z"
         style="fill:#ffffff;fill-opacity:1"
         inkscape:connector-curvature="0" />
      <path
         id="path3848"
         d="M 10.5,24.003 C 10.5,22.5 9.75,21.75 9,21.75 H 2.25 c -0.75,0 -1.5,0.75 -1.5,2.248 0,1.502 0.75,2.252 1.5,2.252 H 9 c 0.75,0 1.5,-0.75 1.5,-2.247 z"
         style="fill:#ffffff;fill-opacity:1"
         inkscape:connector-curvature="0" />
      <path
         id="path3850"
         d="M 47.25,24.003 C 47.25,22.5 46.5,21.75 45.75,21.75 H 39 c -0.75,0 -1.5,0.75 -1.5,2.248 0,1.502 0.75,2.252 1.5,2.252 h 6.75 c 0.75,0 1.5,-0.75 1.5,-2.247 z"
         style="fill:#ffffff;fill-opacity:1"
         inkscape:connector-curvature="0" />
      <path
         id="path3852"
         d="M 14.584,11.631 10.642,7.674 c -0.708,-0.71 -1.949,-0.71 -2.655,0 l -0.5,0.501 c -0.731,0.733 -0.731,1.931 0,2.663 l 3.944,3.959 c 0.354,0.355 0.824,0.55 1.327,0.55 0.503,0 0.974,-0.194 1.328,-0.55 l 0.499,-0.5 c 0.354,-0.355 0.548,-0.83 0.548,-1.332 0,-0.506 -0.195,-0.979 -0.549,-1.334 z"
         style="fill:#ffffff;fill-opacity:1"
         inkscape:connector-curvature="0" />
      <path
         id="path3854"
         d="m 40.562,8.174 -0.498,-0.5 c -0.708,-0.711 -1.948,-0.711 -2.655,0 l -3.943,3.956 c -0.731,0.736 -0.731,1.931 0,2.667 l 0.5,0.5 c 0.353,0.355 0.824,0.55 1.326,0.55 0.504,0 0.975,-0.194 1.328,-0.55 l 3.943,-3.959 c 0.731,-0.733 0.731,-1.93 -0.001,-2.664 z"
         style="fill:#ffffff;fill-opacity:1"
         inkscape:connector-curvature="0" />
      <path
         id="path3856"
         d="m 24,47.25 c 1.5,0 2.25,-0.75 2.25,-1.5 V 39 c 0,-0.75 -0.75,-1.5 -2.25,-1.5 -1.5,0 -2.25,0.75 -2.25,1.5 v 6.75 c 0,0.75 0.75,1.5 2.25,1.5 z"
         style="fill:#ffffff;fill-opacity:1"
         inkscape:connector-curvature="0" />
      <path
         id="path3858"
         d="m 33.465,36.424 3.943,3.957 c 0.707,0.71 1.948,0.71 2.654,0 l 0.499,-0.5 c 0.731,-0.734 0.731,-1.932 0,-2.665 l -3.942,-3.958 c -0.354,-0.355 -0.825,-0.55 -1.328,-0.55 -0.502,0 -0.974,0.194 -1.326,0.55 l -0.5,0.5 c -0.354,0.354 -0.547,0.829 -0.547,1.332 0,0.506 0.193,0.978 0.547,1.334 z"
         style="fill:#ffffff;fill-opacity:1"
         inkscape:connector-curvature="0" />
      <path
         id="path3860"
         d="m 7.488,39.881 0.499,0.5 c 0.708,0.71 1.947,0.71 2.655,0 l 3.942,-3.956 c 0.733,-0.736 0.733,-1.932 0,-2.667 l -0.498,-0.5 c -0.354,-0.355 -0.825,-0.549 -1.328,-0.549 -0.502,0 -0.974,0.193 -1.326,0.549 l -3.944,3.959 c -0.732,0.732 -0.732,1.929 0,2.664 z"
         style="fill:#ffffff;fill-opacity:1"
         inkscape:connector-curvature="0" />
    </g>
  </g>
</svg>
