<?xml version="1.0" encoding="UTF-8" standalone="no"?>
<!-- Created with Inkscape (http://www.inkscape.org/) -->

<svg
   xmlns:dc="http://purl.org/dc/elements/1.1/"
   xmlns:cc="http://creativecommons.org/ns#"
   xmlns:rdf="http://www.w3.org/1999/02/22-rdf-syntax-ns#"
   xmlns:svg="http://www.w3.org/2000/svg"
   xmlns="http://www.w3.org/2000/svg"
   xmlns:sodipodi="http://sodipodi.sourceforge.net/DTD/sodipodi-0.dtd"
   xmlns:inkscape="http://www.inkscape.org/namespaces/inkscape"
   width="31"
   height="32"
   id="svg4449"
   version="1.1"
   inkscape:version="0.48.4 r9939"
   sodipodi:docname="font-smaller.svg">
  <defs
     id="defs4451" />
  <metadata
     id="metadata4454">
    <rdf:RDF>
      <cc:Work
         rdf:about="">
        <dc:format>image/svg+xml</dc:format>
        <dc:type
           rdf:resource="http://purl.org/dc/dcmitype/StillImage" />
        <dc:title></dc:title>
      </cc:Work>
    </rdf:RDF>
  </metadata>
  <g
     id="layer1"
     inkscape:label="Layer 1"
     inkscape:groupmode="layer"
     transform="translate(-14,17.620001)">
    <g
       style="fill:#808080;fill-opacity:1;stroke:none"
       id="text4469"
       transform="matrix(1.0223048,0,0,0.9009009,-0.31226766,-6.1245039)">
      <path
         d="m 14,2.7799982 10.76,0 0,4.44 -10.76,0 0,-4.44"
         id="path5540"
         inkscape:connector-curvature="0" />
    </g>
    <g
       transform="matrix(1.0493827,0,0,1.0127932,7.0123457,-22.375865)"
       style="fill:#808080;fill-opacity:1;stroke:none"
       id="text5558">
      <path
         d="m 20.72,15.14 c -2e-6,-0.293319 0.09333,-0.653319 0.28,-1.08 0.186664,-0.453318 0.49333,-0.946651 0.92,-1.48 0.453329,-0.559983 1.159995,-1.026649 2.12,-1.4 0.959993,-0.373315 2.106659,-0.559982 3.44,-0.56 2.186655,1.8e-5 3.679987,0.520018 4.48,1.56 0.826652,1.013349 1.239985,2.773347 1.24,5.28 l 0,8.4 c -1.5e-5,0.826669 0.306652,1.240001 0.92,1.24 0.479984,10e-7 1.173316,-0.306665 2.08,-0.92 l 0,1.04 c -0.400017,0.480001 -0.93335,0.96 -1.6,1.44 -0.640016,0.479999 -1.213348,0.719999 -1.72,0.72 -0.960014,-10e-7 -1.666679,-0.293334 -2.12,-0.88 -0.453345,-0.586666 -0.706678,-1.319999 -0.76,-2.2 -2.213343,2.053334 -4.133341,3.079999 -5.76,3.08 -1.200005,-10e-7 -2.213337,-0.413334 -3.04,-1.24 -0.800002,-0.826665 -1.200002,-1.826664 -1.2,-3 -2e-6,-0.586663 0.09333,-1.133329 0.28,-1.64 0.213331,-0.533328 0.466664,-0.999994 0.76,-1.4 0.29333,-0.399993 0.69333,-0.786659 1.2,-1.16 0.506662,-0.399992 0.973329,-0.733325 1.4,-1 0.426661,-0.266658 0.959994,-0.533324 1.6,-0.8 0.666659,-0.293324 1.199992,-0.51999 1.6,-0.68 0.426658,-0.15999 0.959991,-0.35999 1.6,-0.6 0.666656,-0.239989 1.133322,-0.413322 1.4,-0.52 -1.1e-5,-2.239986 -0.186678,-3.759985 -0.56,-4.56 -0.373344,-0.82665 -1.16001,-1.239983 -2.36,-1.24 -0.453341,1.7e-5 -0.960008,0.106684 -1.52,0.32 -0.53334,0.21335 -0.906673,0.480016 -1.12,0.8 -0.05334,0.213349 -0.08001,0.413349 -0.08,0.6 -6e-6,0.133349 0.01333,0.400015 0.04,0.8 0.02666,0.373348 0.03999,0.680014 0.04,0.92 -6e-6,0.453347 -0.186672,0.86668 -0.56,1.24 -0.346672,0.373345 -0.746671,0.560012 -1.2,0.56 -0.58667,1.2e-5 -1.040003,-0.146655 -1.36,-0.44 -0.293336,-0.319987 -0.440002,-0.719987 -0.44,-1.2 m 9.12,10.04 0,-6.8 c -0.266678,0.106677 -0.706677,0.28001 -1.32,0.52 -0.613343,0.213343 -1.106676,0.400009 -1.48,0.56 -0.373342,0.133342 -0.813341,0.346675 -1.32,0.64 -0.506673,0.266675 -0.906673,0.560008 -1.2,0.88 -0.266673,0.293341 -0.506672,0.680007 -0.72,1.16 -0.213339,0.453339 -0.320005,0.973339 -0.32,1.56 -5e-6,0.933337 0.239995,1.720003 0.72,2.36 0.50666,0.613335 1.213326,0.920002 2.12,0.92 0.479992,2e-6 1.133324,-0.186665 1.96,-0.56 0.853323,-0.399997 1.373322,-0.81333 1.56,-1.24"
         id="path5567"
         inkscape:connector-curvature="0"
         style="fill:#808080;fill-opacity:1" />
    </g>
  </g>
</svg>
