<?xml version="1.0" encoding="UTF-8" standalone="no"?>
<svg
   xmlns:svg="http://www.w3.org/2000/svg"
   xmlns="http://www.w3.org/2000/svg"
   xmlns:sodipodi="http://sodipodi.sourceforge.net/DTD/sodipodi-0.dtd"
   xmlns:inkscape="http://www.inkscape.org/namespaces/inkscape"
   width="100"
   height="64"
   version="1.1"
   inkscape:version="0.92.5 (2060ec1f9f, 2020-04-08)"
   sodipodi:docname="font-larger.svg">
  <rect
     style="opacity:0;fill:#ffffff"
     height="64"
     width="100"/>
  <g
     transform="translate(-14,-946.02223)">
    <g
       transform="matrix(1.6163793,0,0,1.5182163,-0.62931024,-534.45853)">
      <path
         style="fill:#ffffff;fill-opacity:1;stroke:none"
         d="m 14,994.18217 h 7.12 v -7.84 h 4.32 v 7.84 h 7.12 v 4.08 h -7.12 v 7.84003 h -4.32 v -7.84003 H 14 v -4.08"
         inkscape:connector-curvature="0"/>
    </g>
    <g
       transform="matrix(1.7406963,0,0,1.7391304,12.768306,943.23962)">
      <path
         d="M 53.56,33.8 H 42.4 V 32 c 1.013315,-0.05333 1.719981,-0.159998 2.12,-0.32 0.39998,-0.159998 0.59998,-0.439997 0.6,-0.84 -2e-5,-0.346663 -0.28002,-1.199996 -0.84,-2.56 L 43,25.12 h -9.76 c -0.106675,0.320008 -0.360008,0.920008 -0.76,1.8 -0.400007,0.853339 -0.720007,1.626672 -0.96,2.32 -0.240006,0.666671 -0.360006,1.200003 -0.36,1.6 -6e-6,0.480002 0.22666,0.800002 0.68,0.96 0.479993,0.133335 1.173325,0.200002 2.08,0.2 v 1.8 H 25 v -1.72 c 0.293333,-0.02667 0.573333,-0.08 0.84,-0.16 0.266666,-0.08 0.519999,-0.199998 0.76,-0.36 0.239998,-0.186664 0.453331,-0.346664 0.64,-0.48 0.186664,-0.159997 0.373331,-0.399997 0.56,-0.72 0.21333,-0.319996 0.37333,-0.573329 0.48,-0.76 0.13333,-0.186662 0.306663,-0.493329 0.52,-0.92 0.213329,-0.453328 0.359996,-0.786661 0.44,-1 0.106662,-0.213327 0.266662,-0.58666 0.48,-1.12 0.239995,-0.559992 0.413328,-0.946658 0.52,-1.16 L 38.28,6.2 h 1.76 l 9.68,22.24 c 0.639975,1.493337 1.119974,2.400003 1.44,2.72 0.533307,0.560002 1.333306,0.840002 2.4,0.84 v 1.8 m -11.52,-11.24 -3.96,-9.28 -3.8,9.28 h 7.76"
         inkscape:connector-curvature="0"
         style="fill:#ffffff;fill-opacity:1"/>
    </g>
  </g>
</svg>
