<?xml version="1.0" encoding="utf-8" standalone="no"?>
<svg version="1.1" viewBox="0 0 100 64" xmlns="http://www.w3.org/2000/svg">
  <rect style="fill:#ffffff;opacity:0" height="64" width="100"/>
  <g style="fill:#ffffff">
    <path d="M 8,28.5 H 19.5 V 17 h 7 V 28.5 H 38 v 7 H 26.5 V 47 h -7 V 35.5 H 8 v -7"/>
    <path d="M 92,56 H 72.574 v -3.13 c 1.764,-0.093 2.994,-0.278 3.69,-0.557 0.696,-0.278 1.044,-0.765 1.044,-1.461 -0,-0.603 -0.487,-2.087 -1.462,-4.452 L 73.618,40.904 H 56.629 c 0,0 -2.978,7.182 -2.994,7.165 -0.418,1.159 -0.627,2.087 -0.627,2.783 -0,0.835 0.395,1.391 1.184,1.67 0.836,0.232 2.042,0.348 3.621,0.348 v 3.13 H 42.286 v -2.991 c 0.511,-0.046 0.998,-0.139 1.462,-0.278 0.464,-0.139 0.905,-0.348 1.323,-0.626 0.418,-0.325 0.789,-0.603 1.114,-0.835 0.325,-0.278 0.65,-0.696 0.975,-1.252 0.371,-0.557 0.65,-0.997 0.836,-1.322 0.232,-0.325 0.534,-0.858 0.905,-1.6 L 65.402,8 h 3.064 l 16.85,38.678 c 1.114,2.597 1.95,4.174 2.507,4.73 0.928,0.974 2.321,1.461 4.178,1.461 v 3.13 M 71.947,36.452 65.054,20.313 58.439,36.452 h 13.508"/>
  </g>
</svg>
