<?xml version="1.0" encoding="utf-8" standalone="no"?>
<svg version="1.1" viewBox="0 0 64 64"  xmlns="http://www.w3.org/2000/svg">
  <rect style="fill:#ffffff;opacity:0" height="64" width="64"/>
  <g style="fill:#ffffff">
    <path d="m 8,38 h 13 v 5 H 8 v -5"/>
    <path d="m 27.694,31.71 c -0,-0.5 0.165,-1.114 0.495,-1.842 0.33,-0.773 0.872,-1.615 1.626,-2.525 0.801,-0.955 2.05,-1.751 3.747,-2.388 1.697,-0.637 3.723,-0.955 6.08,-0.955 3.865,0 6.504,0.887 7.918,2.661 1.461,1.729 2.192,4.731 2.192,9.006 v 14.328 c -0,1.41 0.542,2.115 1.626,2.115 0.848,0 2.074,-0.523 3.676,-1.569 v 1.774 c -0.707,0.819 -1.65,1.638 -2.828,2.456 -1.131,0.819 -2.144,1.228 -3.04,1.228 -1.697,-0 -2.946,-0.5 -3.747,-1.501 -0.801,-1.001 -1.249,-2.252 -1.343,-3.753 -3.912,3.502 -7.305,5.254 -10.18,5.254 -2.121,-0 -3.912,-0.705 -5.373,-2.115 -1.414,-1.41 -2.121,-3.116 -2.121,-5.117 -0,-1.001 0.165,-1.933 0.495,-2.797 0.377,-0.91 0.825,-1.706 1.343,-2.388 0.518,-0.682 1.225,-1.342 2.121,-1.979 0.895,-0.682 1.72,-1.251 2.474,-1.706 0.754,-0.455 1.697,-0.91 2.828,-1.365 1.178,-0.5 2.121,-0.887 2.828,-1.16 0.754,-0.273 1.697,-0.614 2.828,-1.023 1.178,-0.409 2.003,-0.705 2.474,-0.887 -0,-3.821 -0.33,-6.414 -0.99,-7.778 -0.66,-1.41 -2.05,-2.115 -4.171,-2.115 -0.801,0 -1.697,0.182 -2.686,0.546 -0.943,0.364 -1.602,0.819 -1.979,1.365 -0.094,0.364 -0.141,0.705 -0.141,1.023 -0,0.227 0.024,0.682 0.071,1.365 0.047,0.637 0.071,1.16 0.071,1.569 -0,0.773 -0.33,1.478 -0.99,2.115 -0.613,0.637 -1.32,0.955 -2.121,0.955 -1.037,0 -1.838,-0.25 -2.404,-0.751 -0.518,-0.546 -0.778,-1.228 -0.778,-2.047 m 16.119,17.126 V 37.237 c -0.471,0.182 -1.249,0.478 -2.333,0.887 -1.084,0.364 -1.956,0.682 -2.616,0.955 -0.66,0.227 -1.437,0.591 -2.333,1.092 -0.895,0.455 -1.602,0.955 -2.121,1.501 -0.471,0.5 -0.895,1.16 -1.273,1.979 -0.377,0.773 -0.566,1.66 -0.566,2.661 -0,1.592 0.424,2.934 1.273,4.026 0.895,1.046 2.144,1.569 3.747,1.569 0.848,0 2.003,-0.318 3.464,-0.955 1.508,-0.682 2.427,-1.387 2.757,-2.115"/>
  </g>
</svg>
