<?xml version="1.0" encoding="UTF-8" standalone="no"?>
<svg
   xmlns:svg="http://www.w3.org/2000/svg"
   xmlns="http://www.w3.org/2000/svg"
   xmlns:sodipodi="http://sodipodi.sourceforge.net/DTD/sodipodi-0.dtd"
   xmlns:inkscape="http://www.inkscape.org/namespaces/inkscape"
   width="64"
   height="64"
   version="1.1"
   inkscape:version="0.92.5 (2060ec1f9f, 2020-04-08)"
   sodipodi:docname="night-mode.svg">
  <rect
     style="opacity:0;fill:#ffffff"
     height="64"
     width="64"/>
  <g
     transform="translate(0,-988.36215)">
    <g
       transform="matrix(0.33942251,-0.33942251,0.33942251,0.33942251,-0.9,1024.6049)">
      <path
         d="m 54.714286,-7.78571 c -27.611111,0 -50.0000003,22.388889 -50.0000003,50 0,27.611111 22.3888893,50 50.0000003,50 27.611111,0 50.000004,-22.388889 50.000004,-50 0,-27.611111 -22.388893,-50 -50.000004,-50 z m 9.781481,83.492593 c -2.925925,0.8 -5.996296,1.229629 -9.174074,1.229629 -19.177777,0 -34.388888,-15.540741 -34.388888,-34.722222 0,-19.174074 15.211111,-34.722222 34.388888,-34.722222 3.174074,0 6.248149,0.433333 9.174074,1.237037 -14.729629,4.018518 -25.04074,17.485185 -25.04074,33.485185 0,16 10.311111,29.462963 25.04074,33.492593 z"
         style="fill:#ffffff;fill-opacity:1"
         inkscape:connector-curvature="0"
         sodipodi:nodetypes="ssssscssscsc"/>
    </g>
  </g>
</svg>
