<?xml version="1.0" encoding="utf-8" standalone="no"?>
<svg version="1.1" viewBox="0 0 64 64"  xmlns="http://www.w3.org/2000/svg">
  <rect style="fill:#ffffff;opacity:0" height="64" width="64"/>
  <path style="fill:#ffffff" d="m 15.029,15.029 c -9.372,9.372 -9.372,24.57 0,33.942 9.372,9.372 24.57,9.372 33.942,0 9.372,-9.372 9.372,-24.57 0,-33.942 -9.372,-9.372 -24.57,-9.372 -33.942,0 z m 31.659,25.019 c -0.722,1.265 -1.618,2.453 -2.697,3.531 -6.509,6.509 -16.947,6.397 -23.458,-0.113 -6.508,-6.508 -6.623,-16.948 -0.113,-23.458 1.077,-1.077 2.268,-1.974 3.534,-2.694 -3.636,6.364 -2.565,14.434 2.866,19.865 5.431,5.431 13.5,6.5 19.868,2.869 z"/>
</svg>
