<?xml version="1.0" encoding="UTF-8" standalone="no"?>
<!-- Created with Inkscape (http://www.inkscape.org/) -->

<svg
   xmlns:dc="http://purl.org/dc/elements/1.1/"
   xmlns:cc="http://creativecommons.org/ns#"
   xmlns:rdf="http://www.w3.org/1999/02/22-rdf-syntax-ns#"
   xmlns:svg="http://www.w3.org/2000/svg"
   xmlns="http://www.w3.org/2000/svg"
   xmlns:sodipodi="http://sodipodi.sourceforge.net/DTD/sodipodi-0.dtd"
   xmlns:inkscape="http://www.inkscape.org/namespaces/inkscape"
   width="100"
   height="100"
   id="svg2"
   version="1.1"
   inkscape:version="0.48.4 r9939"
   sodipodi:docname="night-mode.svg">
  <defs
     id="defs4" />
  <metadata
     id="metadata7">
    <rdf:RDF>
      <cc:Work
         rdf:about="">
        <dc:format>image/svg+xml</dc:format>
        <dc:type
           rdf:resource="http://purl.org/dc/dcmitype/StillImage" />
        <dc:title></dc:title>
      </cc:Work>
    </rdf:RDF>
  </metadata>
  <g
     inkscape:label="Layer 1"
     inkscape:groupmode="layer"
     id="layer1"
     transform="translate(0,-952.36215)">
    <path
       sodipodi:type="arc"
       style="opacity:0;fill:#000000;fill-opacity:0.50196078;stroke:#808080;stroke-width:10;stroke-linecap:square;stroke-miterlimit:4;stroke-opacity:1;stroke-dasharray:none"
       id="path3778"
       sodipodi:cx="42.5"
       sodipodi:cy="52.5"
       sodipodi:rx="27.5"
       sodipodi:ry="27.5"
       d="m 70,52.5 a 27.5,27.5 0 1 1 -55,0 27.5,27.5 0 1 1 55,0 z"
       transform="translate(0,952.36215)" />
    <path
       sodipodi:type="arc"
       style="opacity:0;fill:#000000;fill-opacity:0.50196078;stroke:#000000;stroke-width:10;stroke-linecap:square;stroke-miterlimit:4;stroke-opacity:1;stroke-dasharray:none"
       id="path3790"
       sodipodi:cx="47.5"
       sodipodi:cy="50"
       sodipodi:rx="32.5"
       sodipodi:ry="35"
       d="m 80,50 a 32.5,35 0 1 1 -65,0 32.5,35 0 1 1 65,0 z"
       transform="translate(0,952.36215)" />
    <g
       transform="matrix(0.70710678,-0.70710678,0.70710678,0.70710678,-18.537197,1011.201)">
      <rect
         id="rect3794"
         height="48"
         width="48"
         style="fill:none"
         x="0"
         y="0" />
      <path
         id="path3800"
         d="m 54.714286,-7.78571 c -27.611111,0 -50.0000003,22.388889 -50.0000003,50 0,27.611111 22.3888893,50 50.0000003,50 27.611111,0 50.000004,-22.388889 50.000004,-50 0,-27.611111 -22.388893,-50 -50.000004,-50 z m 9.781481,83.492593 c -2.925925,0.8 -5.996296,1.229629 -9.174074,1.229629 -19.177777,0 -34.388888,-15.540741 -34.388888,-34.722222 0,-19.174074 15.211111,-34.722222 34.388888,-34.722222 3.174074,0 6.248149,0.433333 9.174074,1.237037 -14.729629,4.018518 -25.04074,17.485185 -25.04074,33.485185 0,16 10.311111,29.462963 25.04074,33.492593 z"
         style="fill:#000000;fill-opacity:1"
         inkscape:connector-curvature="0"
         sodipodi:nodetypes="ssssscssscsc" />
    </g>
  </g>
</svg>
