<?xml version="1.0" encoding="utf-8" standalone="no"?>
<svg version="1.1" viewBox="0 0 80 60"  xmlns="http://www.w3.org/2000/svg">
  <path style="fill:#ffffff" d="M 76,3 H 4 C 4,3 3,3.06 3,4 v 52 c 0,1 1,1 1,1 h 24.5 l 3.812,-2.875 H 37.25 v 1.969 l 0.281,0.562 L 38,56.938 45.469,57 53.688,50 H 76 c 0,0 0.982,-0.27 1,-1.125 V 4 C 77,3.045 76,3 76,3 Z M 14.75,13.281 c 1.827,-0.079 3.626,0.475 4.219,1.531 1.485,-2.342 9.156,-2.1 9.156,2.25 V 36.094 H 24 V 18.938 c -0.564,-1.324 -2.824,-1.296 -3.312,-0.125 V 36.25 L 17.25,36.188 V 18.75 c -0.47,-1.165 -2.655,-1.162 -3.219,0.156 v 17.125 H 10 V 17 c 0,-2.469 2.401,-3.618 4.75,-3.719 z m 48.75,0 c 3.488,0.082 6.575,3.263 6.5,7.094 0,0.1 0,0.217 0,0.312 -0.073,3.831 -3.012,6.862 -6.5,6.781 -3.488,-0.081 -6.544,-3.267 -6.469,-7.094 0,-0.1 0,-0.213 0,-0.312 0.073,-3.829 2.979,-6.862 6.469,-6.781 z M 31.469,13.438 c 1.252,0 2.25,1.036 2.25,2.312 0,1.276 -1,2.312 -2.25,2.312 -1.252,0 -2.281,-1.036 -2.281,-2.312 0,-1.276 1.029,-2.312 2.281,-2.312 z m 8.719,0.125 h 2.938 c 1.254,0 2.281,0.89 2.281,2 0,1.108 -1.027,2.031 -2.281,2.031 h -2.219 c -1.013,0.253 -1.823,0.985 -2.156,1.938 -0.543,1.554 0.35,3.227 1.969,3.75 H 43.125 c 0.254,0.021 0.5,0.083 0.75,0.125 1.181,0.368 1.791,1.512 1.375,2.562 -0.318,0.8 -1.168,1.344 -2.125,1.344 l -2.438,-0.031 c -3.341,-0.192 -6.069,-2.697 -6.5,-5.969 -0.494,-3.76 2.183,-7.2 6,-7.688 v -0.062 z m 10.094,0 c 0.313,-0.012 0.616,0.037 0.938,0.094 0.63,-0.113 1.286,-0.1 1.906,0.062 2.536,0.652 4.08,3.364 3.469,6.062 H 52.812 l -0.031,-1.281 c -0.053,-0.828 -0.809,-1.45 -1.719,-1.406 -0.91,0.046 -1.611,0.762 -1.562,1.594 v 8.625 H 45.719 V 18.594 18.25 c 0.011,-0.165 0.036,-0.308 0.062,-0.469 0.377,-2.393 2.306,-4.133 4.5,-4.219 z M 63.5,17.375 c -1.619,0 -2.875,1.35 -2.875,3 0,1.65 1.256,3 2.875,3 1.619,0 3,-1.35 3,-3 0,-1.65 -1.381,-3 -3,-3 z m -31.938,1.062 c 1.252,0.063 2.216,1.13 2.156,2.406 v 7.125 H 29.188 V 20.625 c 0.062,-1.276 1.125,-2.251 2.375,-2.188 z m 15.781,9.875 2.969,0.031 -0.844,2.438 -8.281,0.062 c -1.562,0.042 -3.812,-0.011 -3.812,0.844 0,0.669 3.347,1.446 5.188,2 2.719,0.824 5,2.08 4.406,4.75 -0.848,3.779 -5.483,3.562 -11.094,3.562 -3.939,0 -7.625,-0.25 -7.625,-0.25 l 1.531,-4.281 c 0,0 3.254,0.396 7.125,0.469 2.5,0.048 3.344,0 3.344,-0.594 0,-0.732 -2.295,-1.157 -3.75,-1.719 -1.525,-0.596 -4.052,-1.908 -3.844,-3.812 0.152,-1.468 1.439,-3 8.219,-3.344 2.35,-0.121 4.695,-0.158 6.469,-0.156 z m 5.375,0.031 c 2.117,0 2.871,0.018 4.781,0.062 0.478,0.015 1.288,0.106 2.281,0.25 L 55.688,31.219 C 55.035,31.05 54.301,30.918 53.5,30.844 52.616,30.759 51.875,30.781 51.875,30.781 l 0.844,-2.437 z m 10.344,0.875 1.625,0.594 -6.906,2.312 -0.688,-0.469 z m 3.344,1.312 c 1.3,0.652 2.401,1.471 2.969,2.531 0.506,0.933 0.4,1.9 -0.188,2.844 -4.672,5.915 -16.828,5.865 -21.219,6.062 L 49.875,36.5 c 1.16,-0.044 2.84,-0.207 3.844,-0.406 1,-0.203 1.89,-0.465 2.625,-0.781 0.722,-0.314 1.288,-0.685 1.656,-1.062 0.363,-0.372 0.5,-0.76 0.438,-1.156 -0.015,-0.097 -0.049,-0.185 -0.094,-0.281 -0.026,-0.061 -0.051,-0.128 -0.094,-0.188 l 8.156,-2.094 z"/>
</svg>
